<svg width="1135" height="339" viewBox="0 0 1135 339" fill="none" xmlns="http://www.w3.org/2000/svg">
<path fill-rule="evenodd" clip-rule="evenodd" d="M1067 274.068C1064.02 275.061 1060.42 275.558 1056.18 275.558C1052.76 275.558 1049.7 275.252 1047.01 274.641C1044.45 274.03 1042.25 273.175 1040.42 272.075C1038.71 270.853 1037.36 269.448 1036.38 267.859C1035.41 266.27 1034.92 264.56 1034.92 262.727V262.543H1035.1H1076.71H1135C1135 251.423 1133.04 241.83 1129.13 233.765C1125.35 225.578 1119.91 218.857 1112.82 213.602C1105.85 208.225 1097.48 204.254 1087.71 201.687C1078.05 199.121 1067.42 197.838 1055.81 197.838C1044.45 197.838 1033.76 199.121 1023.74 201.687C1013.72 204.254 1004.92 208.164 997.34 213.419C989.886 218.551 984.021 225.028 979.744 232.849C975.467 240.669 973.328 249.773 973.328 260.16C973.328 270.547 975.467 279.651 979.744 287.472C984.021 295.293 989.886 301.831 997.34 307.085L1067 274.068ZM1040.97 247.513C1044.88 245.313 1049.83 244.213 1055.81 244.213C1058.75 244.213 1061.43 244.519 1063.88 245.13C1066.44 245.619 1068.64 246.413 1070.48 247.513C1072.31 248.49 1073.72 249.773 1074.69 251.362C1075.79 252.828 1076.34 254.539 1076.34 256.494V256.861H1076.16H1035.28H1035.1V256.494C1035.1 252.584 1037.06 249.59 1040.97 247.513Z" fill="white"/>
<path d="M1076.71 262.543C1076.59 266.576 1074.75 269.753 1071.21 272.075C1069.98 272.878 1068.58 273.543 1067 274.068L997.34 307.085C1004.92 312.218 1013.65 316.067 1023.55 318.633C1033.57 321.199 1044.33 322.483 1055.81 322.483C1069.26 322.483 1081.41 320.65 1092.29 316.984C1103.17 313.318 1112.15 308.368 1119.24 302.136C1126.45 295.782 1131.15 288.755 1133.35 281.057L1076.71 262.543Z" fill="#EBEBEB"/>
<path d="M904.455 316.983C904.455 307.207 904.455 297.492 904.455 287.839C904.455 278.062 904.455 268.348 904.455 258.694C904.455 248.918 904.455 239.203 904.455 229.549C904.455 221.239 904.455 212.93 904.455 204.62C904.455 196.188 904.455 187.817 904.455 179.508H967.877C967.877 184.64 967.877 189.773 967.877 194.905C967.877 199.915 967.877 204.987 967.877 210.119C967.877 227.838 967.877 245.618 967.877 263.46C967.877 281.301 967.877 299.142 967.877 316.983H904.455Z" fill="white"/>
<path fill-rule="evenodd" clip-rule="evenodd" d="M823.371 282.889L823.188 282.339V281.79L816.589 242.563C814.512 229.488 812.373 216.412 810.174 203.337H742.902C746.935 215.924 750.968 228.571 755 241.28L767.098 279.04C771.131 291.627 775.163 304.274 779.196 316.983H813.473L823.371 282.889Z" fill="white"/>
<path d="M800.825 331.647C798.748 334.091 796.609 336.535 794.41 338.979H856.549C861.559 323.827 866.508 308.735 871.396 293.704L886.06 248.612C891.07 233.582 896.112 218.153 901 203H837.211C835.745 211.676 834.125 220.75 832.536 229.549C831.07 238.225 829.604 246.962 828.137 255.761C826.671 264.437 825.143 273.174 823.555 281.973V282.156C823.555 282.278 823.494 282.462 823.371 282.706V282.889L813.473 316.983C811.396 319.427 809.257 321.871 807.058 324.315L800.825 331.647Z" fill="#EBEBEB"/>
<path fill-rule="evenodd" clip-rule="evenodd" d="M739.344 253.195C737.999 255.761 735.8 258.022 732.745 259.977C729.812 261.932 726.513 263.46 722.847 264.559C719.181 265.659 715.576 266.209 712.032 266.209C708.855 266.209 705.983 265.904 703.417 265.293C700.85 264.682 698.59 263.826 696.634 262.726C694.801 261.504 693.335 260.038 692.235 258.327C691.258 256.616 690.769 254.6 690.769 252.278V252.095V251.912V238.531V224.966V206.27V187.94L628.08 202.97V235.964V269.142C628.08 280.14 630.952 289.549 636.695 297.37C642.439 305.069 650.259 310.996 660.158 315.15C670.178 319.183 681.482 321.199 694.068 321.199C702.378 321.199 710.688 320.161 718.997 318.083C727.307 316.128 734.089 313.073 739.344 308.918V253.195Z" fill="#EBEBEB"/>
<path d="M695.168 236.514C693.824 242.013 692.419 247.574 690.952 253.195H739.344V203.337H703.6C702.256 208.836 700.85 214.396 699.384 220.017C698.04 225.516 696.635 231.015 695.168 236.514Z" fill="#096C2F"/>
<path d="M484.107 239.631C484.107 232.665 486.063 226.616 489.973 221.484C494.006 216.351 499.444 212.074 506.287 208.653C513.13 205.109 520.89 202.482 529.566 200.771C538.242 199.06 547.285 198.205 556.695 198.205C568.304 198.205 579.057 199.243 588.955 201.321C598.976 203.398 608.019 206.148 616.084 209.569V252.095C612.662 249.529 608.141 247.329 602.52 245.496C597.021 243.663 591.155 242.258 584.923 241.28C578.813 240.303 573.008 239.814 567.509 239.814C563.843 239.814 560.483 240.058 557.428 240.547C554.495 240.914 552.112 241.525 550.279 242.38C548.568 243.235 547.713 244.335 547.713 245.679C547.713 246.413 547.957 246.963 548.446 247.329C549.057 247.696 549.912 247.94 551.012 248.062C552.112 248.185 553.517 248.246 555.228 248.246C558.039 248.246 560.544 248.246 562.743 248.246C564.943 248.246 567.387 248.246 570.075 248.246C576.185 248.246 582.295 248.673 588.406 249.529C594.638 250.262 600.259 251.789 605.269 254.111C610.402 256.433 614.495 259.794 617.55 264.193C620.605 268.47 622.133 274.152 622.133 281.24C622.133 288.694 620.055 295.048 615.901 300.303C611.868 305.435 606.308 309.651 599.22 312.951C592.255 316.128 584.373 318.45 575.574 319.916C566.898 321.383 557.855 322.116 548.446 322.116C537.326 322.116 526.328 321.077 515.452 319C504.698 316.922 495.472 313.867 487.773 309.835V265.109C490.828 268.409 495.167 271.158 500.788 273.358C506.531 275.435 512.702 277.024 519.301 278.124C526.022 279.101 532.316 279.59 538.181 279.59C541.969 279.59 545.391 279.407 548.446 279.04C551.501 278.551 553.884 277.879 555.595 277.024C557.428 276.046 558.344 274.824 558.344 273.358C558.344 272.747 558.161 272.319 557.794 272.075C557.428 271.83 556.817 271.647 555.961 271.525C555.228 271.403 554.189 271.342 552.845 271.342C551.012 271.342 549.118 271.342 547.163 271.342C545.208 271.342 543.436 271.342 541.847 271.342C537.57 271.342 532.804 271.219 527.55 270.975C522.417 270.608 517.285 269.936 512.152 268.959C507.02 267.859 502.315 266.209 498.038 264.01C493.883 261.688 490.523 258.572 487.957 254.661C485.391 250.629 484.107 245.618 484.107 239.631Z" fill="white"/>
<path d="M458.527 152.416H351.702C351.539 152.416 351.457 152.416 351.457 152.416V173.023C351.457 173.272 351.457 173.522 351.457 173.772C351.621 173.772 351.702 173.772 351.702 173.772H454.843V226.6H351.702C351.702 226.6 351.621 226.6 351.457 226.6C351.457 226.6 351.457 226.725 351.457 226.975C351.457 226.975 351.457 227.1 351.457 227.349V248.331C351.621 248.331 351.702 248.331 351.702 248.331H460V339H252C252 324.263 252 309.526 252 294.789C252 279.803 252 264.941 252 250.204C252 235.467 252 220.73 252 205.993C252 191.007 252 176.145 252 161.408C252 146.421 252 131.56 252 116.823C252 107.081 252 97.34 252 87.5987C252 77.6076 252 67.7413 252 58H458.527V152.416Z" fill="white"/>
<path d="M0 58H177.34C191.73 58 203.667 61.9964 213.151 69.9893C222.635 77.7324 229.748 87.8485 234.491 100.337C239.233 112.576 241.604 125.565 241.604 139.303C241.604 153.54 238.987 167.403 233.755 180.891C228.686 194.129 220.918 204.994 210.453 213.487C200.151 221.979 187.233 226.225 171.698 226.225C171.044 226.225 169.409 226.225 166.792 226.225C164.176 226.225 161.478 226.225 158.698 226.225C156.082 226.225 154.365 226.225 153.547 226.225C153.547 226.225 153.547 226.35 153.547 226.6C153.547 226.85 153.547 226.975 153.547 226.975C153.547 226.975 153.547 227.1 153.547 227.349C153.547 227.349 153.547 227.474 153.547 227.724H209.226L247 339H130.491C127.384 326.261 124.195 313.523 120.925 300.784C117.818 288.045 114.629 275.307 111.358 262.568C108.252 249.829 105.063 237.091 101.792 224.352H130.245C133.516 224.352 136.377 223.603 138.83 222.104C141.447 220.605 143.572 218.607 145.208 216.109C146.843 213.612 148.069 210.864 148.887 207.867C149.704 204.62 150.113 201.372 150.113 198.125C150.113 193.629 149.377 189.383 147.906 185.387C146.434 181.39 144.226 178.143 141.283 175.645C138.34 173.148 134.66 171.899 130.245 171.899H102.283C102.283 171.899 102.201 172.024 102.038 172.273C102.038 172.273 101.956 172.273 101.792 172.273C101.792 172.273 101.792 172.398 101.792 172.648C101.792 188.884 101.792 200.873 101.792 208.616C101.792 216.109 101.792 220.855 101.792 222.853C101.792 224.602 101.792 225.226 101.792 224.727C101.792 224.727 101.792 226.1 101.792 228.848C101.792 231.346 101.792 234.843 101.792 239.339C101.792 243.835 101.792 248.955 101.792 254.7C101.792 262.943 101.792 272.06 101.792 282.051C101.792 292.042 101.792 302.033 101.792 312.024C101.792 321.765 101.792 330.757 101.792 339H0C0 323.014 0 307.028 0 291.043C0 274.807 0 258.696 0 242.711C0 226.725 0 210.739 0 194.753C0 178.518 0 162.407 0 146.421C0 131.684 0 116.948 0 102.211C0 87.4738 0 72.7369 0 58Z" fill="white"/>
<path d="M815.353 137.679L846.145 188.884H861.714C867.019 188.884 871.921 187.5 876.418 184.732C880.916 181.964 884.318 178.274 886.625 173.661C888.932 169.509 889.969 165.011 889.739 160.167C889.508 155.324 888.124 150.941 885.587 147.02L863.444 110L815.353 137.679Z" fill="#096C2F"/>
<path d="M751.5 230.5L806.357 285.759V258.08H827.116C832.421 258.08 837.265 256.696 841.647 253.929C846.03 251.161 849.49 247.47 852.027 242.857L872 203L806.357 202.723V175.045L751.5 230.5Z" fill="#096C2F"/>
<path d="M746.25 43.8286L718.585 89.5223L676 64.0333L706.462 13.3662C708.949 9.22162 712.524 7.14935 717.186 7.14935C721.849 7.14935 725.424 9.22162 727.91 13.3662L746.25 43.8286Z" fill="#096C2F"/>
<path d="M751.845 77.3995L819.919 94.4957L837.016 26.1107L815.879 39.166L799.715 12.1228C797.435 8.39271 794.379 5.43972 790.545 3.26383C786.711 1.08794 782.619 0 778.267 0H734.438L773.293 64.655L751.845 77.3995Z" fill="#096C2F"/>
<path d="M627.593 199.697L676.706 183.486C681.24 181.989 685.189 179.485 688.554 175.972C691.92 172.459 694.197 168.272 695.385 163.411L698.185 152.599L725.591 159.473L684.528 90.4089L615.211 131.723L643.121 138.599L627.593 199.697Z" fill="#096C2F"/>
</svg>
