<svg width="1198" height="339" viewBox="0 0 1198 339" fill="none" xmlns="http://www.w3.org/2000/svg">
<path fill-rule="evenodd" clip-rule="evenodd" d="M1129.94 274.068C1126.96 275.061 1123.35 275.558 1119.11 275.558C1115.69 275.558 1112.64 275.252 1109.95 274.641C1107.38 274.03 1105.18 273.175 1103.35 272.075C1101.64 270.853 1100.29 269.448 1099.32 267.859C1098.34 266.27 1097.85 264.56 1097.85 262.727V262.543H1098.03H1139.64H1197.93C1197.93 251.423 1195.98 241.83 1192.07 233.765C1188.28 225.578 1182.84 218.857 1175.75 213.602C1168.79 208.225 1160.42 204.254 1150.64 201.687C1140.99 199.121 1130.36 197.838 1118.75 197.838C1107.38 197.838 1096.69 199.121 1086.67 201.687C1076.65 204.254 1067.85 208.164 1060.27 213.419C1052.82 218.551 1046.95 225.028 1042.68 232.849C1038.4 240.669 1036.26 249.773 1036.26 260.16C1036.26 270.547 1038.4 279.651 1042.68 287.472C1046.95 295.293 1052.82 301.831 1060.27 307.085L1129.94 274.068ZM1103.9 247.513C1107.81 245.313 1112.76 244.213 1118.75 244.213C1121.68 244.213 1124.37 244.519 1126.81 245.13C1129.38 245.619 1131.58 246.413 1133.41 247.513C1135.24 248.49 1136.65 249.773 1137.63 251.362C1138.73 252.828 1139.28 254.539 1139.28 256.494V256.861H1139.09H1098.22H1098.03V256.494C1098.03 252.584 1099.99 249.59 1103.9 247.513Z" fill="white"/>
<path d="M1139.64 262.543C1139.52 266.576 1137.69 269.753 1134.14 272.075C1132.92 272.878 1131.52 273.543 1129.94 274.068L1060.27 307.085C1067.85 312.218 1076.59 316.067 1086.49 318.633C1096.51 321.199 1107.26 322.483 1118.75 322.483C1132.19 322.483 1144.35 320.65 1155.22 316.984C1166.1 313.318 1175.08 308.368 1182.17 302.136C1189.38 295.782 1194.08 288.755 1196.28 281.057L1139.64 262.543Z" fill="#E8E8E8"/>
<path d="M967.389 316.983C967.389 307.207 967.389 297.492 967.389 287.839C967.389 278.062 967.389 268.348 967.389 258.694C967.389 248.918 967.389 239.203 967.389 229.549C967.389 221.239 967.389 212.93 967.389 204.62C967.389 196.188 967.389 187.817 967.389 179.508H1030.81C1030.81 184.64 1030.81 189.773 1030.81 194.905C1030.81 199.915 1030.81 204.987 1030.81 210.119C1030.81 227.838 1030.81 245.618 1030.81 263.46C1030.81 281.301 1030.81 299.142 1030.81 316.983H967.389Z" fill="white"/>
<path fill-rule="evenodd" clip-rule="evenodd" d="M886.305 282.889L886.122 282.339V281.79L879.523 242.563C877.445 229.488 875.307 216.412 873.107 203.337H805.836C809.869 215.924 813.901 228.571 817.934 241.28L830.032 279.04C834.064 291.627 838.097 304.274 842.129 316.983H876.407L886.305 282.889Z" fill="white"/>
<path d="M863.759 331.647C861.682 334.091 859.543 336.535 857.343 338.979H919.482C924.493 323.827 929.442 308.735 934.33 293.704L948.994 248.612C954.004 233.582 959.046 218.153 963.934 203H900.145C898.679 211.676 897.059 220.75 895.47 229.549C894.004 238.225 892.537 246.962 891.071 255.761C889.604 264.437 888.077 273.174 886.488 281.973V282.156C886.488 282.278 886.427 282.462 886.305 282.706V282.889L876.407 316.983C874.329 319.427 872.191 321.871 869.991 324.315L863.759 331.647Z" fill="#E8E8E8"/>
<path fill-rule="evenodd" clip-rule="evenodd" d="M802.277 253.195C800.933 255.761 798.733 258.022 795.678 259.977C792.746 261.932 789.446 263.46 785.78 264.559C782.114 265.659 778.509 266.209 774.965 266.209C771.788 266.209 768.916 265.904 766.35 265.293C763.784 264.682 761.523 263.826 759.568 262.726C757.735 261.504 756.269 260.038 755.169 258.327C754.191 256.616 753.703 254.6 753.703 252.278V252.095V251.912V238.531V224.966V206.27V187.94L691.014 202.97V235.964V269.142C691.014 280.14 693.885 289.549 699.629 297.37C705.372 305.069 713.193 310.996 723.091 315.15C733.112 319.183 744.415 321.199 757.002 321.199C765.312 321.199 773.621 320.161 781.931 318.083C790.24 316.128 797.023 313.073 802.277 308.918V253.195Z" fill="#E8E8E8"/>
<path d="M758.102 236.514C756.758 242.013 755.352 247.574 753.886 253.195H802.277V203.337H766.534C765.189 208.836 763.784 214.396 762.318 220.017C760.973 225.516 759.568 231.015 758.102 236.514Z" fill="#096C2F"/>
<path d="M547.041 239.631C547.041 232.665 548.996 226.616 552.907 221.484C556.939 216.351 562.377 212.074 569.22 208.653C576.064 205.109 583.823 202.482 592.5 200.771C601.176 199.06 610.219 198.205 619.628 198.205C631.237 198.205 641.991 199.243 651.889 201.321C661.909 203.398 670.952 206.148 679.018 209.569V252.095C675.596 249.529 671.074 247.329 665.453 245.496C659.954 243.663 654.089 242.258 647.856 241.28C641.746 240.303 635.942 239.814 630.443 239.814C626.777 239.814 623.416 240.058 620.361 240.547C617.428 240.914 615.046 241.525 613.213 242.38C611.502 243.235 610.646 244.335 610.646 245.679C610.646 246.413 610.891 246.963 611.38 247.329C611.991 247.696 612.846 247.94 613.946 248.062C615.046 248.185 616.451 248.246 618.162 248.246C620.972 248.246 623.477 248.246 625.677 248.246C627.877 248.246 630.321 248.246 633.009 248.246C639.119 248.246 645.229 248.673 651.339 249.529C657.571 250.262 663.193 251.789 668.203 254.111C673.335 256.433 677.429 259.794 680.484 264.193C683.539 268.47 685.066 274.152 685.066 281.24C685.066 288.694 682.989 295.048 678.834 300.303C674.802 305.435 669.241 309.651 662.154 312.951C655.188 316.128 647.306 318.45 638.508 319.916C629.832 321.383 620.789 322.116 611.38 322.116C600.259 322.116 589.261 321.077 578.385 319C567.632 316.922 558.406 313.867 550.707 309.835V265.109C553.762 268.409 558.1 271.158 563.721 273.358C569.465 275.435 575.636 277.024 582.235 278.124C588.956 279.101 595.249 279.59 601.115 279.59C604.903 279.59 608.325 279.407 611.38 279.04C614.435 278.551 616.817 277.879 618.528 277.024C620.361 276.046 621.278 274.824 621.278 273.358C621.278 272.747 621.094 272.319 620.728 272.075C620.361 271.83 619.75 271.647 618.895 271.525C618.162 271.403 617.123 271.342 615.779 271.342C613.946 271.342 612.052 271.342 610.096 271.342C608.141 271.342 606.369 271.342 604.781 271.342C600.504 271.342 595.738 271.219 590.483 270.975C585.351 270.608 580.218 269.936 575.086 268.959C569.954 267.859 565.249 266.209 560.972 264.01C556.817 261.688 553.457 258.572 550.89 254.661C548.324 250.629 547.041 245.618 547.041 239.631Z" fill="white"/>
<path fill-rule="evenodd" clip-rule="evenodd" d="M488 211.644V339H520V211.644H488Z" fill="#E8E8E8"/>
<path d="M488 185.356V58H520V185.356H488Z" fill="#E8E8E8"/>
<path d="M458.527 152.416H351.702C351.539 152.416 351.457 152.416 351.457 152.416V173.023C351.457 173.272 351.457 173.522 351.457 173.772C351.621 173.772 351.702 173.772 351.702 173.772H454.843V226.6H351.702C351.702 226.6 351.621 226.6 351.457 226.6C351.457 226.6 351.457 226.725 351.457 226.975C351.457 226.975 351.457 227.1 351.457 227.349V248.331C351.621 248.331 351.702 248.331 351.702 248.331H460V339H252C252 324.263 252 309.526 252 294.789C252 279.803 252 264.941 252 250.204C252 235.467 252 220.73 252 205.993C252 191.007 252 176.145 252 161.408C252 146.421 252 131.56 252 116.823C252 107.081 252 97.34 252 87.5987C252 77.6076 252 67.7413 252 58H458.527V152.416Z" fill="white"/>
<path d="M0 58H177.34C191.73 58 203.667 61.9964 213.151 69.9893C222.635 77.7324 229.748 87.8485 234.491 100.337C239.233 112.576 241.604 125.565 241.604 139.303C241.604 153.54 238.987 167.403 233.755 180.891C228.686 194.129 220.918 204.994 210.453 213.487C200.151 221.979 187.233 226.225 171.698 226.225C171.044 226.225 169.409 226.225 166.792 226.225C164.176 226.225 161.478 226.225 158.698 226.225C156.082 226.225 154.365 226.225 153.547 226.225C153.547 226.225 153.547 226.35 153.547 226.6C153.547 226.85 153.547 226.975 153.547 226.975C153.547 226.975 153.547 227.1 153.547 227.349C153.547 227.349 153.547 227.474 153.547 227.724H209.226L247 339H130.491C127.384 326.261 124.195 313.523 120.925 300.784C117.818 288.045 114.629 275.307 111.358 262.568C108.252 249.829 105.063 237.091 101.792 224.352H130.245C133.516 224.352 136.377 223.603 138.83 222.104C141.447 220.605 143.572 218.607 145.208 216.109C146.843 213.612 148.069 210.864 148.887 207.867C149.704 204.62 150.113 201.372 150.113 198.125C150.113 193.629 149.377 189.383 147.906 185.387C146.434 181.39 144.226 178.143 141.283 175.645C138.34 173.148 134.66 171.899 130.245 171.899H102.283C102.283 171.899 102.201 172.024 102.038 172.273C102.038 172.273 101.956 172.273 101.792 172.273C101.792 172.273 101.792 172.398 101.792 172.648C101.792 188.884 101.792 200.873 101.792 208.616C101.792 216.109 101.792 220.855 101.792 222.853C101.792 224.602 101.792 225.226 101.792 224.727C101.792 224.727 101.792 226.1 101.792 228.848C101.792 231.346 101.792 234.843 101.792 239.339C101.792 243.835 101.792 248.955 101.792 254.7C101.792 262.943 101.792 272.06 101.792 282.051C101.792 292.042 101.792 302.033 101.792 312.024C101.792 321.765 101.792 330.757 101.792 339H0C0 323.014 0 307.028 0 291.043C0 274.807 0 258.696 0 242.711C0 226.725 0 210.739 0 194.753C0 178.518 0 162.407 0 146.421C0 131.684 0 116.948 0 102.211C0 87.4738 0 72.7369 0 58Z" fill="white"/>
<path d="M878.286 137.679L909.079 188.884H924.648C929.953 188.884 934.854 187.5 939.352 184.732C943.85 181.964 947.252 178.274 949.559 173.661C951.865 169.509 952.903 165.011 952.672 160.167C952.442 155.324 951.058 150.941 948.521 147.02L926.378 110L878.286 137.679Z" fill="#096C2F"/>
<path d="M814.434 230.5L869.291 285.759V258.08H890.05C895.355 258.08 900.198 256.696 904.581 253.929C908.963 251.161 912.423 247.47 914.96 242.857L934.934 203L869.291 202.723V175.045L814.434 230.5Z" fill="#096C2F"/>
<path d="M809.184 43.8286L781.519 89.5223L738.934 64.0333L769.396 13.3662C771.883 9.22162 775.457 7.14935 780.12 7.14935C784.783 7.14935 788.357 9.22162 790.844 13.3662L809.184 43.8286Z" fill="#096C2F"/>
<path d="M814.779 77.3995L882.853 94.4957L899.949 26.1107L878.812 39.166L862.648 12.1228C860.369 8.39271 857.312 5.43972 853.479 3.26383C849.645 1.08794 845.552 0 841.2 0H797.372L836.227 64.655L814.779 77.3995Z" fill="#096C2F"/>
<path d="M690.526 199.697L739.64 183.486C744.173 181.989 748.123 179.485 751.488 175.972C754.853 172.459 757.13 168.272 758.319 163.411L761.118 152.599L788.525 159.473L747.462 90.4089L678.145 131.723L706.054 138.599L690.526 199.697Z" fill="#096C2F"/>
</svg>
